<?xml version="1.0" encoding="UTF-8" standalone="no"?>
<!-- Created with Inkscape (http://www.inkscape.org/) -->

<svg
   xmlns:dc="http://purl.org/dc/elements/1.1/"
   xmlns:cc="http://creativecommons.org/ns#"
   xmlns:rdf="http://www.w3.org/1999/02/22-rdf-syntax-ns#"
   xmlns:svg="http://www.w3.org/2000/svg"
   xmlns="http://www.w3.org/2000/svg"
   xmlns:sodipodi="http://sodipodi.sourceforge.net/DTD/sodipodi-0.dtd"
   xmlns:inkscape="http://www.inkscape.org/namespaces/inkscape"
   width="4.5501099mm"
   height="17.782894mm"
   viewBox="0 0 4.5501099 17.782894"
   version="1.1"
   id="svg8"
   inkscape:version="0.92.1 r"
   sodipodi:docname="wall_only.svg">
  <defs
     id="defs2" />
  <sodipodi:namedview
     id="base"
     pagecolor="#ffffff"
     bordercolor="#666666"
     borderopacity="1.0"
     inkscape:pageopacity="0.0"
     inkscape:pageshadow="2"
     inkscape:zoom="9.1441968"
     inkscape:cx="5.8773065"
     inkscape:cy="43.767417"
     inkscape:document-units="mm"
     inkscape:current-layer="layer1"
     showgrid="false"
     inkscape:snap-bbox="true"
     inkscape:bbox-paths="true"
     inkscape:bbox-nodes="true"
     inkscape:snap-bbox-edge-midpoints="true"
     inkscape:snap-bbox-midpoints="true"
     inkscape:snap-midpoints="true"
     inkscape:object-paths="true"
     fit-margin-top="0"
     fit-margin-left="0"
     fit-margin-right="0"
     fit-margin-bottom="0"
     inkscape:window-width="1366"
     inkscape:window-height="768"
     inkscape:window-x="0"
     inkscape:window-y="0"
     inkscape:window-maximized="0" />
  <metadata
     id="metadata5">
    <rdf:RDF>
      <cc:Work
         rdf:about="">
        <dc:format>image/svg+xml</dc:format>
        <dc:type
           rdf:resource="http://purl.org/dc/dcmitype/StillImage" />
        <dc:title></dc:title>
      </cc:Work>
    </rdf:RDF>
  </metadata>
  <g
     inkscape:label="Layer 1"
     inkscape:groupmode="layer"
     id="layer1"
     transform="translate(-102.72508,-156.57278)">
    <path
       style="opacity:1;vector-effect:none;fill:#ec008c;fill-opacity:1;stroke:none;stroke-width:0.99999994;stroke-linecap:butt;stroke-linejoin:miter;stroke-miterlimit:4;stroke-dasharray:none;stroke-dashoffset:0;stroke-opacity:1"
       d="m 2.40625,0 v 3.5527344 h 2.2558594 c 0.1787716,0 0.3222656,-0.143494 0.3222656,-0.3222656 V 0.32226562 C 4.984375,0.14349397 4.840881,0 4.6621094,0 Z M 5.9980469,0 C 5.8192752,0 5.6757812,0.14349397 5.6757812,0.32226562 V 3.2304688 c 0,0.1787716 0.143494,0.3222656 0.3222657,0.3222656 H 16.011719 c 0.178771,0 0.322265,-0.143494 0.322265,-0.3222656 V 0.32226562 C 16.333984,0.14349397 16.19049,0 16.011719,0 Z M 17.347656,0 C 17.168885,0 17.025391,0.14349397 17.025391,0.32226562 V 3.2304688 c 0,0.1787716 0.143494,0.3222656 0.322265,0.3222656 h 2.25586 V 0 Z M 2.40625,4.2441406 V 7.796875 h 7.929688 c 0.178771,0 0.322265,-0.143494 0.322265,-0.3222656 V 4.5664062 c 0,-0.1787716 -0.143494,-0.3222656 -0.322265,-0.3222656 z m 9.265625,0 c -0.178772,0 -0.322266,0.143494 -0.322266,0.3222656 v 2.9082032 c 0,0.1787716 0.143494,0.3222656 0.322266,0.3222656 h 7.931641 V 4.2441406 Z M 2.40625,8.4882812 v 3.5527348 h 2.2558594 c 0.1787716,0 0.3222656,-0.143494 0.3222656,-0.322266 V 8.8105469 c 0,-0.1787717 -0.143494,-0.3222657 -0.3222656,-0.3222657 z m 3.5917969,0 c -0.1787717,0 -0.3222657,0.143494 -0.3222657,0.3222657 V 11.71875 c 0,0.178772 0.143494,0.322266 0.3222657,0.322266 H 16.011719 c 0.178771,0 0.322265,-0.143494 0.322265,-0.322266 V 8.8105469 c 0,-0.1787717 -0.143494,-0.3222657 -0.322265,-0.3222657 z m 11.3496091,0 c -0.178771,0 -0.322265,0.143494 -0.322265,0.3222657 V 11.71875 c 0,0.178772 0.143494,0.322266 0.322265,0.322266 h 2.25586 V 8.4882812 Z M 2.40625,12.732422 v 3.552734 h 7.929688 c 0.178771,0 0.322265,-0.143494 0.322265,-0.322265 v -2.908203 c 0,-0.178772 -0.143494,-0.322266 -0.322265,-0.322266 z m 9.265625,0 c -0.178772,0 -0.322266,0.143494 -0.322266,0.322266 v 2.908203 c 0,0.178771 0.143494,0.322265 0.322266,0.322265 h 7.931641 v -3.552734 z m -9.265625,4.24414 v 3.552735 h 2.2558594 c 0.1787716,0 0.3222656,-0.145447 0.3222656,-0.324219 v -2.90625 c 0,-0.178772 -0.143494,-0.322266 -0.3222656,-0.322266 z m 3.5917969,0 c -0.1787717,0 -0.3222657,0.143494 -0.3222657,0.322266 v 2.90625 c 0,0.178772 0.143494,0.324219 0.3222657,0.324219 H 16.011719 c 0.178771,0 0.322265,-0.145447 0.322265,-0.324219 v -2.90625 c 0,-0.178772 -0.143494,-0.322266 -0.322265,-0.322266 z m 11.3496091,0 c -0.178771,0 -0.322265,0.143494 -0.322265,0.322266 v 2.90625 c 0,0.178772 0.143494,0.324219 0.322265,0.324219 h 2.25586 V 16.976562 Z M 2.40625,21.21875 v 3.554688 h 7.929688 c 0.178771,0 0.322265,-0.145448 0.322265,-0.324219 v -2.90625 c 0,-0.178772 -0.143494,-0.324219 -0.322265,-0.324219 z m 9.265625,0 c -0.178772,0 -0.322266,0.145447 -0.322266,0.324219 v 2.90625 c 0,0.178771 0.143494,0.324219 0.322266,0.324219 h 7.931641 V 21.21875 Z M 2.40625,25.462891 v 3.552734 h 2.2558594 c 0.1787716,0 0.3222656,-0.143494 0.3222656,-0.322266 v -2.90625 c 0,-0.178771 -0.143494,-0.324218 -0.3222656,-0.324218 z m 3.5917969,0 c -0.1787717,0 -0.3222657,0.145447 -0.3222657,0.324218 v 2.90625 c 0,0.178772 0.143494,0.322266 0.3222657,0.322266 H 16.011719 c 0.178771,0 0.322265,-0.143494 0.322265,-0.322266 v -2.90625 c 0,-0.178771 -0.143494,-0.324218 -0.322265,-0.324218 z m 11.3496091,0 c -0.178771,0 -0.322265,0.145447 -0.322265,0.324218 v 2.90625 c 0,0.178772 0.143494,0.322266 0.322265,0.322266 h 2.25586 V 25.462891 Z M 2.40625,29.707031 v 3.552735 h 7.929688 c 0.178771,0 0.322265,-0.143494 0.322265,-0.322266 v -2.908203 c 0,-0.178772 -0.143494,-0.322266 -0.322265,-0.322266 z m 9.265625,0 c -0.178772,0 -0.322266,0.143494 -0.322266,0.322266 V 32.9375 c 0,0.178772 0.143494,0.322266 0.322266,0.322266 h 7.931641 V 29.707031 Z M 2.40625,33.951172 v 3.552734 h 2.2558594 c 0.1787716,0 0.3222656,-0.143494 0.3222656,-0.322265 v -2.908203 c 0,-0.178772 -0.143494,-0.322266 -0.3222656,-0.322266 z m 3.5917969,0 c -0.1787717,0 -0.3222657,0.143494 -0.3222657,0.322266 v 2.908203 c 0,0.178771 0.143494,0.322265 0.3222657,0.322265 H 16.011719 c 0.178771,0 0.322265,-0.143494 0.322265,-0.322265 v -2.908203 c 0,-0.178772 -0.143494,-0.322266 -0.322265,-0.322266 z m 11.3496091,0 c -0.178771,0 -0.322265,0.143494 -0.322265,0.322266 v 2.908203 c 0,0.178771 0.143494,0.322265 0.322265,0.322265 h 2.25586 V 33.951172 Z M 2.40625,38.195312 v 3.552735 h 7.929688 c 0.178771,0 0.322265,-0.143494 0.322265,-0.322266 v -2.908203 c 0,-0.178772 -0.143494,-0.322266 -0.322265,-0.322266 z m 9.265625,0 c -0.178772,0 -0.322266,0.143494 -0.322266,0.322266 v 2.908203 c 0,0.178772 0.143494,0.322266 0.322266,0.322266 h 7.931641 V 38.195312 Z M 2.40625,42.439453 v 3.552735 h 2.2558594 c 0.1787716,0 0.3222656,-0.143494 0.3222656,-0.322266 v -2.908203 c 0,-0.178772 -0.143494,-0.322266 -0.3222656,-0.322266 z m 3.5917969,0 c -0.1787717,0 -0.3222657,0.143494 -0.3222657,0.322266 v 2.908203 c 0,0.178772 0.143494,0.322266 0.3222657,0.322266 H 16.011719 c 0.178771,0 0.322265,-0.143494 0.322265,-0.322266 v -2.908203 c 0,-0.178772 -0.143494,-0.322266 -0.322265,-0.322266 z m 11.3496091,0 c -0.178771,0 -0.322265,0.143494 -0.322265,0.322266 v 2.908203 c 0,0.178772 0.143494,0.322266 0.322265,0.322266 h 2.25586 V 42.439453 Z M 2.40625,46.683594 v 3.552734 h 7.929688 c 0.178771,0 0.322265,-0.143494 0.322265,-0.322266 v -2.908203 c 0,-0.178771 -0.143494,-0.322265 -0.322265,-0.322265 z m 9.265625,0 c -0.178772,0 -0.322266,0.143494 -0.322266,0.322265 v 2.908203 c 0,0.178772 0.143494,0.322266 0.322266,0.322266 h 7.931641 v -3.552734 z m -9.265625,4.24414 v 3.552735 h 2.2558594 c 0.1787716,0 0.3222656,-0.145447 0.3222656,-0.324219 V 51.25 c 0,-0.178772 -0.143494,-0.322266 -0.3222656,-0.322266 z m 3.5917969,0 c -0.1787717,0 -0.3222657,0.143494 -0.3222657,0.322266 v 2.908203 c 0,0.178772 0.143494,0.322266 0.3222657,0.322266 H 16.011719 c 0.178771,0 0.322265,-0.143494 0.322265,-0.322266 V 51.25 c 0,-0.178772 -0.143494,-0.322266 -0.322265,-0.322266 z m 11.3496091,0 c -0.178771,0 -0.322265,0.143494 -0.322265,0.322266 v 2.908203 c 0,0.178772 0.143494,0.322266 0.322265,0.322266 h 2.25586 V 50.927734 Z M 2.40625,55.169922 v 3.554687 h 7.929688 c 0.178771,0 0.322265,-0.145447 0.322265,-0.324218 v -2.90625 c 0,-0.178772 -0.143494,-0.324219 -0.322265,-0.324219 z m 9.265625,0 c -0.178772,0 -0.322266,0.145447 -0.322266,0.324219 v 2.90625 c 0,0.178771 0.143494,0.324218 0.322266,0.324218 h 7.931641 v -3.554687 z m -9.265625,4.24414 v 3.554688 h 2.2558594 c 0.1787716,0 0.3222656,-0.145447 0.3222656,-0.324219 v -2.90625 c 0,-0.178771 -0.143494,-0.324219 -0.3222656,-0.324219 z m 3.5917969,0 c -0.1787717,0 -0.3222657,0.145448 -0.3222657,0.324219 v 2.90625 c 0,0.178772 0.143494,0.324219 0.3222657,0.324219 H 16.011719 c 0.178771,0 0.322265,-0.145447 0.322265,-0.324219 v -2.90625 c 0,-0.178771 -0.143494,-0.324219 -0.322265,-0.324219 z m 11.3496091,0 c -0.178771,0 -0.322265,0.145448 -0.322265,0.324219 v 2.90625 c 0,0.178772 0.143494,0.324219 0.322265,0.324219 h 2.25586 V 59.414062 Z M 2.40625,63.658203 v 3.552735 h 7.929688 c 0.178771,0 0.322265,-0.143494 0.322265,-0.322266 v -2.908203 c 0,-0.178772 -0.143494,-0.322266 -0.322265,-0.322266 z m 9.265625,0 c -0.178772,0 -0.322266,0.143494 -0.322266,0.322266 v 2.908203 c 0,0.178772 0.143494,0.322266 0.322266,0.322266 h 7.931641 v -3.552735 z"
       transform="matrix(0.26458333,0,0,0.26458333,102.08843,156.57278)"
       id="rect127"
       inkscape:connector-curvature="0" />
  </g>
</svg>
